<?xml version="1.0" encoding="UTF-8" standalone="no"?>
<svg
   viewBox="0 0 100 50"
   width="100"
   height="50"
   version="1.1"
   id="svg2"
   sodipodi:docname="hawaii.svg"
   inkscape:version="1.3.2 (091e20ef0f, 2023-11-25, custom)"
   xmlns:inkscape="http://www.inkscape.org/namespaces/inkscape"
   xmlns:sodipodi="http://sodipodi.sourceforge.net/DTD/sodipodi-0.dtd"
   xmlns="http://www.w3.org/2000/svg"
   xmlns:svg="http://www.w3.org/2000/svg">
  <defs
     id="defs2" />
  <sodipodi:namedview
     id="namedview2"
     pagecolor="#ffffff"
     bordercolor="#000000"
     borderopacity="0.25"
     inkscape:showpageshadow="2"
     inkscape:pageopacity="0.0"
     inkscape:pagecheckerboard="0"
     inkscape:deskcolor="#d1d1d1"
     inkscape:zoom="10.27"
     inkscape:cx="50"
     inkscape:cy="25.024343"
     inkscape:window-width="1600"
     inkscape:window-height="820"
     inkscape:window-x="0"
     inkscape:window-y="0"
     inkscape:window-maximized="1"
     inkscape:current-layer="svg2" />
  <g
     transform="matrix(0.833333, 0, 0, 0.833333, 0, 0)"
     id="g1">
    <rect
       id="rect124"
       style="display:inline;fill:#012169;stroke-width:1pt;fill-opacity:1"
       height="60"
       width="120"
       x="0"
       y="0" />
    <rect
       id="rect2"
       style="display:inline;fill:#c8102e;stroke-width:1pt;fill-opacity:1"
       height="30"
       width="120"
       x="0"
       y="30" />
    <rect
       id="rect6"
       style="display:inline;fill:#012169;stroke-width:1pt;fill-opacity:1"
       height="7.5"
       width="120"
       x="0"
       y="37.5" />
    <rect
       id="rect7"
       style="display:inline;fill:#ffffff;stroke-width:1pt"
       height="7.5"
       width="120"
       x="0"
       y="45" />
    <rect
       id="rect3"
       style="display:inline;fill:#ffffff;stroke-width:1pt"
       height="30"
       width="60"
       x="60"
       y="0" />
    <rect
       id="rect4"
       style="display:inline;fill:#c8102e;stroke-width:1pt;fill-opacity:1"
       height="7.5"
       width="60"
       x="60"
       y="7.5" />
    <rect
       id="rect5"
       style="display:inline;fill:#012169;stroke-width:1pt;fill-opacity:1"
       height="7.5"
       width="60"
       x="60"
       y="15" />
  </g>
  <g
     id="logo"
     transform="matrix(0.833333, 0, 0, 0.833333, 0, 0)">
    <path
       id="path146"
       style="stroke-width:1pt;fill:#ffffff"
       d="m0 0v3.3541l53.292 26.646h6.708v-3.354l-53.292-26.646h-6.708zm60 0v3.354l-53.292 26.646h-6.708v-3.354l53.292-26.646h6.708z" />
    <path
       id="path136"
       style="stroke-width:1pt;fill:#ffffff"
       d="m25 0v30h10v-30h-10zm-25 10v10h60v-10h-60z" />
    <path
       id="path141"
       style="stroke-width:1pt;fill:#c8102e;fill-opacity:1"
       d="m0 12v6h60v-6h-60zm27-12v30h6v-30h-6z" />
    <path
       id="path150"
       style="stroke-width:1pt;fill:#c8102e;fill-opacity:1"
       d="m0 30l20-10h4.472l-20 10h-4.472zm0-30l20 10h-4.472l-15.528-7.7639v-2.2361zm35.528 10l20-10h4.472l-20 10h-4.472zm24.472 20l-20-10h4.472l15.528 7.764v2.236z" />
  </g>
<!-- app4joy -->
</svg>
