<?xml version="1.0" encoding="UTF-8" standalone="no"?>
<svg
   width="752"
   height="500"
   version="1.1"
   id="svg1"
   viewBox="0 0 752 500"
   xmlns:xlink="http://www.w3.org/1999/xlink"
   xmlns="http://www.w3.org/2000/svg"
   xmlns:svg="http://www.w3.org/2000/svg">
  <defs
     id="defs1" />
  <g
     id="g4">
    <rect
       width="752"
       height="500"
       id="rect1526"
       style="fill:#000f5d" />
  </g>
  <g
     id="g1"
     style="display:inline">
    <path
       d="m 354.95018,372.00322 15.95393,-0.0116 5.25713,-15.58567 4.87195,15.63347 16.06847,-0.004 -12.45438,10.11961 4.51334,14.80291 -13.1604,-8.89622 -13.04481,8.96685 4.44248,-15.00347 z"
       id="path72"
       style="display:inline;fill:#ffb900;fill-opacity:1" />
    <path
       d="m 346.35055,114.65178 22.5024,0.0476 7.40871,-21.984579 6.86363,21.995379 22.62537,0.0223 -17.54845,14.23716 6.35799,20.85672 -18.51354,-12.50503 -18.401,12.62217 6.25549,-21.16833 z"
       id="path90"
       style="display:inline;fill:#ffb900;fill-opacity:1" />
    <use
       transform="translate(95.803472,-302.57555)"
       id="use4474"
       xlink:href="#path72"
       style="fill:#ffb900;fill-opacity:1" />
    <use
       transform="translate(166.33627,-239.95912)"
       id="use4472"
       xlink:href="#path72"
       style="fill:#ffb900;fill-opacity:1" />
    <use
       transform="translate(204.36749,-149.82232)"
       id="use4468"
       xlink:href="#path72"
       style="fill:#ffb900;fill-opacity:1" />
    <use
       transform="translate(127.05167,-126.44797)"
       id="use4466"
       xlink:href="#path72"
       style="fill:#ffb900;fill-opacity:1" />
    <use
       transform="translate(191.93667,-50.087407)"
       id="use4464"
       xlink:href="#path72"
       style="fill:#ffb900;fill-opacity:1" />
    <use
       transform="translate(136.78986,27.026192)"
       id="use4462"
       xlink:href="#path72"
       style="fill:#ffb900;fill-opacity:1" />
    <use
       transform="translate(88.937372,-37.115289)"
       id="use4460"
       xlink:href="#path72"
       style="fill:#ffb900;fill-opacity:1" />
    <use
       transform="translate(52.93993,74.909224)"
       id="use4458"
       xlink:href="#path72"
       style="fill:#ffb900;fill-opacity:1" />
    <use
       transform="translate(-52.93993,74.909224)"
       id="use4442"
       xlink:href="#path72"
       style="fill:#ffb900;fill-opacity:1" />
    <use
       transform="translate(-88.937372,-37.115289)"
       id="use4440"
       xlink:href="#path72"
       style="fill:#ffb900;fill-opacity:1" />
    <use
       transform="translate(-136.78986,27.026192)"
       id="use4444"
       xlink:href="#path72"
       style="fill:#ffb900;fill-opacity:1" />
    <use
       transform="translate(-191.93667,-50.087407)"
       id="use4446"
       xlink:href="#path72"
       style="fill:#ffb900;fill-opacity:1" />
    <use
       transform="translate(-204.36749,-149.82232)"
       id="use4450"
       xlink:href="#path72"
       style="fill:#ffb900;fill-opacity:1" />
    <use
       transform="translate(-127.05167,-126.44797)"
       id="use4448"
       xlink:href="#path72"
       style="fill:#ffb900;fill-opacity:1" />
    <use
       transform="translate(-166.33627,-239.95912)"
       id="use4452"
       xlink:href="#path72"
       style="fill:#ffb900;fill-opacity:1" />
    <use
       transform="translate(-95.803472,-302.57555)"
       id="use4454"
       xlink:href="#path72"
       style="fill:#ffb900;fill-opacity:1" />
    <use
       transform="translate(0,-328.73602)"
       id="use4456"
       xlink:href="#path72"
       style="fill:#ffb900;fill-opacity:1" />
  </g>
  <g
     id="g2"
     style="display:inline">
    <use
       transform="matrix(-1,0,0,1,752.2069,0)"
       id="use4438"
       xlink:href="#path112"
       style="display:inline;fill:#ffb900;fill-opacity:1" />
    <use
       transform="matrix(-1,0,0,1,751.83265,0)"
       id="use4436"
       xlink:href="#path110"
       style="display:inline;fill:#ffb900;fill-opacity:1" />
    <use
       transform="matrix(-1,0,0,1,751.65672,0)"
       id="use4434"
       xlink:href="#path108"
       style="display:inline;fill:#ffb900;fill-opacity:1" />
    <path
       d="m 347.52856,222.70253 c -0.0412,-0.0404 -0.0855,-0.0957 -0.11354,-0.15317 -18.13632,-23.9546 0.31178,-32.7587 0.68493,-49.70522 12.00175,22.28163 -5.58635,29.21334 15.32381,49.87507 z"
       id="path92"
       style="display:inline;fill:#ffb900;fill-opacity:1" />
    <path
       d="m 367.55914,222.71763 c -6.38517,-8.98209 -10.86417,-23.32022 -8.94822,-32.68695 1.90011,-9.362 8.38724,-18.58064 7.48828,-25.66658 3.37894,7.97804 6.5566,11.0531 5.57269,16.92454 5.07704,-15.14068 16.74708,-22.96579 32.56778,-23.74379 -28.45366,21.62187 8.68928,38.23948 -15.87088,65.19717 z"
       id="path94"
       style="fill:#ffb900;fill-opacity:1" />
    <path
       d="m 393.64217,222.75386 c 22.59613,-27.26343 -6.15882,-41.23585 20.04747,-53.45178 -1.03567,7.06032 -5.45844,8.05441 -3.62768,17.91915 1.48518,4.2721 0.89347,7.75738 -0.49083,10.73295 -0.33373,-1.26831 6.85215,-9.43333 10.14497,-9.83173 -6.7922,3.73861 0.57526,22.011 -17.22023,34.63064 l -9.24241,0.003"
       id="path96"
       style="display:inline;fill:#ffb900;fill-opacity:1" />
    <path
       d="m 389.82136,281.58361 c 1.00752,-25.56266 6.47692,-33.3444 16.84627,-44.03549 -20.1215,-0.0474 -42.60824,-0.051 -60.90523,-0.064 10.32576,10.7078 15.78833,18.49479 16.74176,44.05509 9.10653,0.004 18.21069,0.0221 27.3172,0.0444 z"
       id="path98"
       style="fill:#ffb900;fill-opacity:1" />
    <path
       d="m 376.07106,343.98852 7.96085,24.97018 4.39755,-74.08454 c -8.19808,-0.0278 -16.39618,-0.0387 -24.59428,-0.0506 l 4.21997,74.11928 z"
       id="path100"
       style="fill:#ffb900;fill-opacity:1" />
    <path
       d="m 375.95444,455.95155 c 3.51203,-3.2566 4.50939,-13.86597 4.50939,-13.86597 l 2.18412,-43.29912 -6.63412,-4.66153 -6.64919,4.64706 2.11484,43.31016 c 0,0 0.94204,10.57926 4.45885,13.87287 z"
       id="path102"
       style="fill:#ffb900;fill-opacity:1" />
    <path
       d="m 411.54548,233.45842 -70.75026,-0.0759 0.008,-6.71504 70.76511,0.0727 z"
       id="path104"
       style="fill:#ffb900;fill-opacity:1" />
    <path
       d="m 394.32085,292.3443 -36.32183,-0.0387 0.01,-8.254 36.22532,0.0548 -0.0135,8.53789 z"
       id="path106"
       style="fill:#ffb900;fill-opacity:1" />
    <path
       d="m 199.58174,225.53289 134.23228,-15.96154 -0.41641,-2.57606 -133.25952,15.98559 0.44365,2.45201 z"
       id="path108"
       style="fill:#ffb900;fill-opacity:1" />
    <path
       d="m 225.89566,144.68825 107.56743,41.13173 1.2878,-2.34389 L 227.19984,142.34212 227,142.68825 Z"
       id="path110"
       style="fill:#ffb900;fill-opacity:1" />
    <path
       d="m 294.74159,98.652483 46.14965,66.172657 2.92405,-1.07606 L 296.653,96.596011 294,97.652483 Z"
       id="path112"
       style="fill:#ffb900;fill-opacity:1" />
    <path
       d="m 374.88872,142.71881 -0.0338,24.44405 2.58505,0.003 0.0142,-24.45667 -3.56546,0.009 z"
       id="path114"
       style="fill:#ffb900;fill-opacity:1" />
  </g>
  <g
     id="g3"
     style="display:inline">
    <path
       d="m 338.86717,111.7936 -15.48215,-7.93842 1.07787,-2.10211 15.48213,7.93842 -1.07785,2.10211 m 2.63766,-5.71733 -12.50938,-12.09259 1.7979,-1.859838 14.73504,2.941377 c 0.32403,0.06134 0.62033,0.128704 0.88889,0.202111 0.26855,0.07344 0.50662,0.15573 0.71422,0.246848 l -10.13998,-9.802142 1.56801,-1.622048 12.50937,12.092592 -1.78145,1.84285 -14.98558,-2.93712 c -0.2291,-0.04621 -0.45841,-0.103588 -0.6879,-0.172107 -0.224,-0.07416 -0.45377,-0.159375 -0.6893,-0.255643 l 10.13997,9.80217 -1.55981,1.61354 m 13.2059,-28.688308 -3.78567,1.476042 4.81864,12.358419 3.78564,-1.476039 c 1.62139,-0.632176 2.64206,-1.634463 3.06204,-3.006859 0.41708,-1.379688 0.22373,-3.10032 -0.58007,-5.161894 -0.76951,-1.973523 -1.78062,-3.32037 -3.0334,-4.040537 -1.25276,-0.720169 -2.67516,-0.769849 -4.26718,-0.149132 m -0.39565,16.673496 -6.32044,-16.2101 6.17371,-2.407173 c 2.25967,-0.881021 4.2506,-0.879718 5.9728,0.0039 1.72954,0.880815 3.0906,2.594097 4.08324,5.139842 1.02692,2.633854 1.20285,4.927547 0.52775,6.881165 -0.67062,1.943402 -2.12108,3.349912 -4.35138,4.21953 l -6.08568,2.372831 m 16.36218,-4.93076 -1.3756,-17.34424 2.35495,-0.186778 1.3756,17.344243 -2.35495,0.186775 m 10.64333,-7.121238 5.32447,1.021616 -1.19812,-8.04757 -4.12635,7.025954 m -6.30379,6.151157 9.62375,-15.869587 2.56363,0.491898 3.09002,18.308939 -2.51722,-0.482956 -0.83032,-5.451303 -6.7281,-1.290914 -2.80054,4.75466 -2.40122,-0.460737 m 17.0065,3.858306 9.83442,-14.352692 2.13389,1.462153 -0.44004,15.019301 c -0.006,0.329745 -0.0233,0.633129 -0.0509,0.910155 -0.0276,0.277055 -0.069,0.52552 -0.12415,0.745428 l 7.97167,-11.634171 1.86109,1.275201 -9.83442,14.352692 -2.1144,-1.44878 0.394,-15.26563 c 0.007,-0.233594 0.0256,-0.46927 0.0549,-0.706974 0.0357,-0.233245 0.0814,-0.474016 0.13697,-0.722308 l -7.97169,11.634144 -1.85132,-1.268519 m 21.63162,9.467282 2.8882,4.58825 5.06287,-6.369165 -7.95107,1.780915 m -8.79822,-0.40747 18.16632,-3.800695 1.39061,2.20914 -11.26989,14.756545 -1.36544,-2.16916 3.41671,-4.32803 -3.64956,-5.7978 -5.38622,1.19921 -1.30253,-2.06921"
       id="text2636"
       style="fill:#ffb900;fill-opacity:1"
       fill="#ffb900" />
  </g>
<!-- app4joy -->
</svg>
