<?xml version="1.0" encoding="UTF-8" standalone="no"?>
<svg
   viewBox="0 0 36 24"
   width="36"
   height="24"
   version="1.1"
   id="svg7"
   xmlns:xlink="http://www.w3.org/1999/xlink"
   xmlns="http://www.w3.org/2000/svg"
   xmlns:svg="http://www.w3.org/2000/svg">
  <defs
     id="defs1">
    <path
       id="c"
       transform="scale(.024)"
       d="M0,215 a32 32 0 0 0 32 -32 v-16 h31 a32 32 0 0 0 0 -64 h-31 V32 H231 v31 a32 32 0 0 0 64 0 v-31 h28 a32 32 0 0 0 32 -32 L0,0 z" />
  </defs>
  <path
     d="M0 0h36v24H0z"
     id="path1" />
  <path
     fill="#eaaa00"
     d="M 0,24 V 2 L 3,4 V 24 H 6 V 0 h 3 v 24 h 3 V 0 h 3 v 24 h 3 V 0 h 3 v 24 h 3 V 0 h 3 v 24 h 3 V 0 h 3 v 24 h 3 V 22 L 3,0 v 4 l 30,20 z"
     id="path2"
     style="display:inline" />
  <g
     id="q"
     style="display:inline">
    <path
       fill="#ffffff"
       d="m 18,0 h 9 v 12 h 9 V 6 H 18 Z"
       id="path3" />
    <path
       fill="#9d2235"
       d="m 27,0 h 9 V 6 H 18 v 6 h 9 z"
       id="path4" />
    <g
       transform="translate(27,6)"
       id="g7">
      <use
         fill="#9d2235"
         xlink:href="#c"
         id="use4" />
      <use
         fill="#ffffff"
         transform="scale(-1,1)"
         xlink:href="#c"
         id="use5" />
      <use
         fill="#ffffff"
         transform="scale(1,-1)"
         xlink:href="#c"
         id="use6" />
      <use
         fill="#9d2235"
         transform="scale(-1)"
         xlink:href="#c"
         id="use7" />
    </g>
  </g>
  <use
     id="l"
     x="-18"
     y="12"
     xlink:href="#q"
     style="display:inline" />
<!-- app4joy -->
</svg>
