<?xml version="1.0" encoding="UTF-8" standalone="no"?>
<svg
   id="Layer_4"
   data-name="Layer 4"
   viewBox="0 0 360 216"
   version="1.1"
   width="360"
   height="216"
   xmlns="http://www.w3.org/2000/svg"
   xmlns:svg="http://www.w3.org/2000/svg">
  <defs
     id="defs1">
    <style
       id="style1">
      .cls-1 {
        fill: #fff;
      }

      .cls-2 {
        fill: #ffb81d;
      }

      .cls-3 {
        fill: #aa0200;
      }

      .cls-4 {
        fill: #071d49;
      }
    </style>
  </defs>
  <g
     id="g11">
    <polygon
       class="cls-1"
       points="0,87.22 36,66.43 54,76.83 108,45.65 125.99,56.04 180,24.86 234.01,56.04 252,45.65 306,76.83 324,66.43 360,87.22 360,149.57 252,149.57 180,191.14 108,149.57 0,149.57 "
       id="polygon1"
       style="display:inline" />
    <polygon
       class="cls-4"
       points="252,45.65 234.01,56.04 180,24.86 125.99,56.04 108,45.65 54,76.83 36,66.43 0,87.22 0,0 360,0 360,87.22 324,66.43 306,76.83 "
       id="polygon2"
       style="display:inline" />
    <polygon
       class="cls-3"
       points="108,149.57 180,191.14 252,149.57 360,149.57 360,216 0,216 0,149.57 "
       id="polygon8"
       style="display:inline" />
  </g>
  <g
     id="g10"
     style="display:inline">
    <g
       id="g9"
       style="display:inline">
      <polygon
         class="cls-4"
         points="117.64,144 180,180 242.35,144 242.35,72 180,36 117.64,72 "
         id="polygon3"
         style="display:inline" />
      <path
         class="cls-2"
         d="m 180,42.53 -56.7,32.74 v 65.47 l 56.7,32.74 56.7,-32.74 V 75.27 Z m 54,96.65 -54,31.18 -54,-31.18 V 76.83 l 54,-31.18 54,31.18 z"
         id="path3"
         style="display:inline" />
      <g
         id="g8"
         style="display:inline">
        <path
           class="cls-2"
           d="M 199.53,75.56 H 160.5 c -0.75,0 -1.13,-0.92 -0.59,-1.44 5.68,-5.44 12.56,-8.98 20.08,-8.98 7.52,0 14.47,3.54 20.12,8.98 0.54,0.52 0.17,1.44 -0.59,1.44 z"
           id="path4" />
        <path
           class="cls-2"
           d="m 208.46,89.52 h -56.92 c -1.12,0 -1.84,-1.19 -1.33,-2.18 1.11,-2.14 2.35,-4.21 3.72,-6.17 0.91,-1.3 2.39,-2.07 3.98,-2.07 h 44.2 c 1.59,0 3.08,0.78 3.98,2.08 1.36,1.96 2.6,4.02 3.7,6.16 0.51,0.99 -0.21,2.18 -1.33,2.18 z"
           id="path5" />
        <path
           class="cls-2"
           d="m 213.61,103.47 h -67.22 c -0.98,0 -1.69,-0.92 -1.45,-1.86 0.57,-2.2 1.15,-4.28 1.76,-6.11 0.48,-1.46 1.85,-2.45 3.4,-2.45 h 59.81 c 1.54,0 2.91,0.99 3.4,2.45 0.61,1.83 1.2,3.91 1.76,6.11 0.24,0.94 -0.48,1.86 -1.45,1.86 z"
           id="path6" />
        <path
           class="cls-2"
           d="m 216.64,117.43 h -73.27 c -0.94,0 -1.64,-0.85 -1.47,-1.77 0.36,-1.89 0.74,-3.85 1.15,-5.81 0.35,-1.65 1.81,-2.84 3.5,-2.84 h 66.91 c 1.7,0 3.16,1.19 3.5,2.84 0.41,1.96 0.79,3.91 1.15,5.81 0.17,0.92 -0.53,1.77 -1.47,1.77 z"
           id="path7" />
        <path
           class="cls-2"
           d="m 186.97,131.38 c -0.83,0 -1.5,-0.67 -1.5,-1.49 v 0 c 0,-1.51 -0.61,-2.87 -1.6,-3.86 -0.99,-0.99 -2.36,-1.6 -3.87,-1.6 -3.02,0 -5.47,2.44 -5.47,5.45 v 0 c 0,0.82 -0.67,1.49 -1.5,1.49 H 141 c -0.92,0 -1.62,-0.81 -1.48,-1.71 0.2,-1.31 0.51,-3.3 0.91,-5.72 0.29,-1.72 1.78,-2.98 3.53,-2.98 h 72.09 c 1.75,0 3.24,1.26 3.53,2.98 0.4,2.42 0.71,4.41 0.91,5.72 0.14,0.9 -0.56,1.71 -1.48,1.71 h -32.03 z"
           id="path8" />
      </g>
    </g>
    <polygon
       class="cls-1"
       points="170.54,147.45 177.76,147.45 180,140.57 182.23,147.45 189.46,147.45 183.61,151.7 185.85,158.57 180,154.32 174.15,158.57 176.38,151.7 "
       id="polygon9"
       style="display:inline" />
  </g>
<!-- app4joy -->
</svg>
